<?xml version="1.0" encoding="UTF-8"?>
<svg xmlns="http://www.w3.org/2000/svg" version="1.1" viewBox="0 0 100 100">
  <defs>
    <style>
      .cls-1 {
        fill: #fff;
      }

      .cls-2 {
        fill: #d63a25;
        fill-rule: evenodd;
      }
    </style>
  </defs>
  <!-- Generator: Adobe Illustrator 28.7.1, SVG Export Plug-In . SVG Version: 1.2.0 Build 142)  -->
  <g>
    <g id="Layer_1">
      <path class="cls-2" d="M83.4,100H16.6c-9.2,0-16.6-7.4-16.6-16.6V16.6C0,7.4,7.4,0,16.6,0h66.7C92.6,0,100,7.4,100,16.6v66.7c0,9.2-7.4,16.6-16.6,16.6Z"/>
      <g>
        <path class="cls-1" d="M50,13.8c-18.3,0-33.6,9.7-37,27-.8,3.9,2.2,7.5,6.1,7.5h61.8c3.9,0,6.9-3.6,6.1-7.5-3.5-17.3-18.7-27-37-27Z"/>
        <path class="cls-1" d="M74.8,64.3c-4.2,0-6.5-2.2-8.1-3.7-1.4-1.4-2.3-2.2-4.3-2.2s-2.9.8-4.3,2.2c-1.6,1.6-3.9,3.7-8.1,3.7s-6.5-2.2-8.1-3.7c-1.4-1.4-2.3-2.2-4.3-2.2s-2.9.8-4.3,2.2c-1.6,1.6-3.9,3.7-8.1,3.7s-6.5-2.2-8.1-3.7c-1.4-1.4-2.3-2.2-4.3-2.2s-2.7-1.2-2.7-2.7,1.2-2.7,2.7-2.7c4.2,0,6.5,2.2,8.1,3.7,1.4,1.4,2.3,2.2,4.3,2.2s2.9-.8,4.3-2.2c1.6-1.6,3.9-3.7,8.1-3.7s6.5,2.2,8.1,3.7c1.4,1.4,2.3,2.2,4.3,2.2s2.9-.8,4.3-2.2c1.6-1.6,3.9-3.7,8.1-3.7s6.5,2.2,8.1,3.7c1.4,1.4,2.3,2.2,4.3,2.2s2.9-.8,4.3-2.2c1.6-1.6,3.9-3.7,8.1-3.7s2.7,1.2,2.7,2.7-1.2,2.7-2.7,2.7-2.9.8-4.3,2.2c-1.6,1.6-3.9,3.7-8.1,3.7Z"/>
        <rect class="cls-1" x="12.8" y="69.9" width="74.3" height="16.3" rx="5.8" ry="5.8"/>
      </g>
    </g>
  </g>
</svg>